<svg width="434" height="434" viewBox="0 0 434 434" fill="none" xmlns="http://www.w3.org/2000/svg">
    <rect width="434" height="434" rx="217" fill="url(#paint0_linear_9_15)" />
    <path
        d="M199.83 295.536C199.895 295.276 199.951 294.991 199.998 294.68C200.208 293.422 200.642 290.598 201.076 287.774L201.4 285.667C202.978 275.867 208.237 255.917 212.532 244.105C217.002 231.767 225.591 211.905 236.635 188.542C247.942 164.655 255.305 145.842 262.755 122.042L266.261 110.755L260.038 91.9424C252.763 69.8924 245.663 50.905 237.161 30.43C233.83 22.3799 230.938 14.1549 230.763 12.1424C230.587 10.1299 229.974 8.02995 229.36 7.50494C228.988 7.1744 228.772 6.99994 228.703 7C228.626 7.00007 228.732 7.21814 229.01 7.67995C229.36 8.37994 229.623 15.3799 229.623 23.2549C229.623 30.9927 229.681 34.5757 230.012 36.2241C229.827 37.6097 229.625 39.1974 229.416 40.9234C228.967 42.5111 228.525 45.6911 227.695 52.0425C226.117 63.5925 224.364 71.905 218.492 94.9175C215.904 105.019 214.15 112.148 212.811 118.317C212.8 118.333 212.795 118.35 212.795 118.367C212.795 118.373 212.792 118.393 212.787 118.425C211.1 126.206 210.07 132.474 208.85 141.292C207.536 151.005 205.607 158.53 194.564 198.605C193.849 201.186 193.166 203.673 192.512 206.07C191.954 207.414 191.326 209.379 190.619 211.992C187.639 222.405 184.747 234.042 184.747 235.267C184.747 235.402 184.793 235.531 184.876 235.648C181.716 249.028 180.007 258.741 179.05 267.993C178.675 271.304 178.562 272.757 178.889 273.387C178.524 279.335 178.553 285.38 178.987 291.648C178.497 292.159 178.615 293.548 178.962 297.305C181.153 319.617 190.882 352.692 202.277 376.492C202.97 377.95 203.593 379.192 204.148 380.215C204.049 380.9 205.017 382.509 207.448 386.205C209.376 389.18 212.006 393.817 213.408 396.617C217.002 404.055 217.002 400.643 213.321 388.655C211.655 383.055 209.376 375.18 208.325 371.242C208.019 370.111 207.719 369.092 207.429 368.201C204.271 356.552 202.553 349.186 201.05 340.18C200.961 339.658 200.843 339.193 200.706 338.788C200.445 336.858 200.24 334.996 200.085 333.18C199.815 330.326 199.63 328.663 199.342 327.694C199.326 325.748 199.25 323.236 199.121 319.968C198.78 311.775 199.004 303.7 199.83 295.536Z"
        fill="white" />
    <path fill-rule="evenodd" clip-rule="evenodd"
        d="M107 219.763C107 220.193 107.177 220.917 107.177 220.917C107.177 220.917 107.673 221.447 107.915 221.947C108.234 222.915 108.751 224.079 109.456 225.555C110.023 226.762 110.541 227.766 111.006 228.564L111.998 230.805C112.386 231.661 112.783 232.384 113.164 232.956C113.65 234.176 114.416 235.914 115.528 238.391C116.215 240.36 117.439 243.383 119.36 248.042C122.428 255.305 126.197 265.017 127.862 269.655C128.725 272.109 129.533 274.079 130.243 275.514C130.567 276.488 130.882 277.455 131.189 278.416C131.521 279.978 132.074 282.103 132.858 284.88C133.972 288.724 135.92 296.758 137.507 303.77C137.469 304.609 137.777 306.123 138.38 308.855C138.635 309.979 138.919 310.923 139.221 311.643C139.729 314.116 140.046 315.878 140.046 316.38C140.046 316.511 140.484 318.162 140.484 318.162C140.484 318.162 143.162 323.055 144.428 324.167C145.778 325.365 146.101 325.474 147.812 321.867C148.24 321.213 148.72 320.375 149.249 319.355C150.379 317.179 151.435 315.3 151.732 315.017C151.798 315.044 151.866 315.077 151.937 315.118C152.197 315.412 152.776 316.162 153.589 317.247C153.917 317.743 154.31 318.298 154.771 318.917C155.338 319.694 155.82 320.324 156.228 320.819C157.466 322.511 158.886 324.464 160.38 326.53C162.968 330.205 164.829 332.761 166.132 334.385C166.228 334.566 166.356 334.778 166.516 335.017C167.743 337.03 168.97 337.468 168.97 335.893C168.97 335.139 168.538 334.056 166.978 331.484C165.214 328.129 162.29 323.402 158.73 318.162C158.301 317.441 157.729 316.584 157.05 315.68L154.3 311.748C154.136 311.389 154.018 311.075 153.939 310.792L157.05 304.917C161.607 296.342 166.603 289.605 167.042 291.618C167.095 291.859 167.215 292.092 167.383 292.299C167.272 293.057 167.329 294.279 167.568 295.992C167.83 298.442 168.269 302.992 168.444 305.967C169.32 316.905 174.316 333.792 181.416 349.192C182.814 352.301 184.35 354.996 185.357 356.242C186.286 359.175 190.246 367.419 192.022 369.93C192.46 370.455 192.986 370.98 193.161 370.98C193.666 370.98 192.312 367.913 186.925 356.278C186.745 355.201 185.491 352.479 182.293 345.605C175.368 330.555 172.213 313.755 172.476 293.367C172.599 282.958 172.635 279.704 172.016 278.689C172.353 277.732 172.476 276.533 172.476 274.817C172.476 274.31 172.488 273.766 172.51 273.211C172.967 271.812 173.314 269.236 173.791 264.667C175.544 248.655 181.591 223.28 193.073 184.167C197.544 168.767 201.575 154.855 201.838 153.28C202.117 151.843 202.223 151.118 202.04 150.871L202.189 150.217L201.581 150.815C201.379 150.878 201.118 151.005 200.787 151.18C199.91 151.705 194.301 157.042 188.253 163.08C183.631 167.735 180.991 170.451 179.711 172.021C173.591 177.826 166.19 184.789 159.045 191.459C156.096 194.193 152.879 197.202 149.637 200.257C143.851 205.686 138.525 210.699 134.411 214.585C132.597 216.297 131.944 216.932 131.519 217.345C130.98 217.869 130.804 218.04 129.089 219.605C127.953 220.642 126.876 221.572 125.971 222.353C124.434 223.68 123.392 224.58 123.392 224.855C123.392 224.907 123.46 225.049 123.589 225.269L123.568 225.292L123.75 225.535C124.664 227.003 127.223 230.59 130.229 234.567C135.207 241.193 152.595 265.602 159.52 275.593C160.863 277.655 161.863 279.259 162.397 280.227C162.375 280.833 162.032 281.716 161.435 282.68C159.824 284.178 152.142 295.613 147.583 303.255C145.743 306.317 144.866 307.105 144.603 306.055C144.549 305.782 144.443 305.527 144.305 305.304C144.333 304.179 143.74 301.689 142.427 296.178L142.237 295.38C140.839 289.366 138.468 281.345 135.598 272.669C135.679 271.736 135.287 270.245 134.436 268.167C134.097 267.378 133.758 266.745 133.434 266.273C132.826 264.515 132.203 262.745 131.569 260.972C131.697 260.541 131.439 259.806 130.842 258.367C130.583 257.758 130.323 257.246 130.071 256.835C129.751 255.963 129.429 255.092 129.105 254.224L129.352 254.167L126.548 247.255C126.061 246.034 125.608 244.965 125.189 244.049C123.592 240.037 121.998 236.202 120.457 232.686C120.11 231.681 119.521 230.245 118.659 228.18C117.965 226.424 117.301 224.986 116.697 223.892C116.622 223.657 116.554 223.434 116.492 223.224C116.455 223.051 116.427 222.892 116.408 222.752C116.604 222.023 117.828 220.427 119.273 218.905L122.077 215.93C124.36 213.821 125.888 212.321 126.753 211.274C130.401 207.92 135.426 203.213 140.922 197.992C151.791 187.667 164.85 175.417 170.022 170.78C173.344 167.801 176.196 165.038 177.741 163.35C179.099 162.405 181.144 160.706 183.257 158.705C186.763 155.38 192.898 149.78 196.842 146.28C200.874 142.692 204.293 138.93 204.556 137.617C205.258 134.813 203.667 133.049 200.836 133.251C200.587 133.08 200.251 132.98 199.822 132.98C197.982 132.98 183.607 141.642 180.803 144.442L180.801 144.444C180.352 144.892 180.025 145.219 179.849 145.458C178.645 146.645 177.312 148.111 176.245 149.43C174.492 151.705 169.496 157.217 165.113 161.68L157.137 169.73H157.663C156.029 171.178 153.532 173.599 149.687 177.342L138.731 188.105H139.08C135.629 191.487 132.209 194.837 129.139 197.842L127.073 199.305C125.59 200.437 120.461 205.383 115.746 210.434C115.815 210.359 115.775 210.399 114.553 211.697C112.874 213.48 111.56 214.792 111.56 214.792L110.339 215.93L107.615 218.73C107.615 218.73 107.026 219.248 107.002 219.692C107.001 219.715 107 219.738 107 219.763ZM153.544 243.23C151.722 248.457 150.164 252.11 149.778 252.258C149.776 252.047 149.775 251.809 149.775 251.542C149.772 251.495 149.769 251.447 149.766 251.399C149.763 251.371 149.761 251.343 149.759 251.315L149.755 251.277C150.415 246.69 155.743 231.772 160.994 220.305C166.428 208.492 178.261 186.617 181.328 182.855C182.293 181.63 181.679 183.205 179.926 186.355C175.105 195.017 163.448 218.38 160.205 225.73C158.627 229.317 155.56 237.193 153.544 243.23Z"
        fill="white" />
    <path fill-rule="evenodd" clip-rule="evenodd"
        d="M327 228.554C326.883 227.519 326.32 226.667 325.336 225.73C324.91 225.324 324.986 224.855 324.986 224.855C324.986 224.855 324.981 224.409 325.424 223.98C326.293 223.139 326.479 222.359 326.739 221.18C327.343 218.436 324.46 214.355 324.46 214.355L323.233 218.73C323.233 218.73 322.677 221.49 321.918 223.105C321.482 224.034 320.603 225.38 320.603 225.38C320.603 225.38 319.552 228.092 311.663 231.855C307.361 233.889 302.669 235.989 300.329 237.035L300.323 237.038L299.876 237.238C299.693 237.32 299.531 237.393 299.392 237.455C298.709 237.728 298.036 238.051 297.408 238.398C295.449 239.178 293.065 240.145 290.553 241.175C290.008 241.284 289.198 241.566 287.998 242.005C285.894 242.792 280.898 244.805 276.779 246.555L269.328 249.792L260.213 264.667C250.133 281.292 228.834 317.605 228.046 319.705C227.941 319.957 227.957 320.116 227.975 320.28C227.987 320.395 227.999 320.512 227.97 320.664C227.84 321.343 227.502 321.813 227.167 322.277C227 322.509 226.833 322.741 226.694 322.996C224.975 324.729 216.124 341.934 214.46 346.917C213.496 349.805 213.233 350.068 212.97 348.405L212.963 348.362L212.959 348.343C212.953 348.306 212.946 348.27 212.938 348.234C212.916 347.61 212.899 346.826 212.882 345.867C212.855 344.028 212.715 342.646 212.447 341.703C212.678 341.26 212.795 340.78 212.795 340.267C212.795 339.305 213.759 336.242 214.898 333.355L217.089 328.105C218.222 326.342 219.414 324.146 220.647 321.876L220.651 321.869C220.836 321.528 221.022 321.185 221.209 320.843C227.328 309.846 237.371 292.757 253.077 266.536C253.663 265.583 254.261 264.608 254.866 263.617L257.598 259.123C263.17 250.137 266.372 245.65 267.575 245.155C268.321 244.824 268.866 244.493 269.216 244.181L276.34 241.217C282.125 238.768 294.396 232.992 303.512 228.442L312.654 223.831C313.325 223.756 314.543 223.079 316.747 221.792C316.832 221.741 316.915 221.691 316.996 221.641L320.165 220.042L320.534 218.452L321.918 214.53C321.918 214.53 323.759 208.405 324.197 207.005C325.073 204.205 324.46 191.867 324.46 191.867L324.21 191.066C322.975 186.834 323.671 179.792 323.671 179.792C323.671 179.792 322.795 159.842 322.269 150.392L322.088 147.462C322.365 147.06 322.333 146.261 322.125 144.69C322.438 144.059 322.381 142.701 322.181 139.805C322.034 137.948 321.805 136.445 321.51 135.435C321.491 134.646 321.48 133.876 321.48 133.155C321.48 130.976 321.383 129.121 321.228 128.077L321.042 125.717L312.715 138.317C296.062 163.43 290.715 170.43 272.396 190.73C268.277 195.28 264.42 199.742 263.719 200.617C263.379 201.041 263.158 201.347 263.092 201.566C262.402 202.27 261.649 203.057 260.844 203.916C259.823 204.393 257.438 207.13 251.536 213.917C246.014 220.217 237.687 230.455 232.866 236.755C223.926 248.655 211.042 269.48 208.85 275.692C207.448 279.63 205.432 296.605 205.432 296.605L205.589 298.987C205.589 298.987 205.464 303.296 205.444 305.667L205.439 305.872L205.432 306.23C205.275 313.77 205.329 317.785 205.469 316.06C205.575 323.047 205.783 331.605 205.783 331.605L205.783 333.005C205.783 333.27 206.136 335.851 206.612 339.335L206.613 339.34L206.619 339.385C206.769 340.48 206.931 341.664 207.097 342.892C207.408 344.981 207.858 347.514 208.42 350.375C208.501 351.575 209.157 354.581 209.988 357.896C212.148 367.785 215.108 379.773 218.145 390.815C218.307 391.508 218.676 392.837 219.194 394.58C220.287 398.447 221.378 402.148 222.436 405.542C225.039 413.811 227.358 421.513 228.052 423.991L228.817 427H228.861L229.891 424.409C230.627 423.214 231.735 421.066 233.48 417.618C240.229 403.968 258.197 379.38 284.93 347.18L293.52 336.768L293.958 329.592C294.095 326.522 294.498 318.983 294.918 311.123C295.037 308.903 295.157 306.658 295.273 304.48L295.302 303.911C295.851 293.351 296.104 288.503 297.529 284.028C298.737 280.232 300.791 276.703 304.586 270.18L304.739 269.917C312.978 255.83 323.759 236.93 325.687 233.08C326.467 231.558 326.899 230.389 327 229.406V228.554ZM225.241 405.98C223.367 398.824 218.769 375.798 218.128 370.543C218.114 370.088 218.13 369.729 218.174 369.449L218.591 369.265C218.698 369.242 218.814 369.23 218.93 369.23C219.456 369.23 221.823 368.268 224.364 367.042C226.819 365.817 229.097 365.117 229.36 365.38C229.623 365.642 229.974 371.417 230.149 378.242C230.318 387.613 230.559 392.414 231.126 394.653L231.264 398.97C231.18 399.571 231.139 400.371 231.113 401.43C231.042 407.068 229.688 416.373 228.858 418.236C228.484 417.396 227.96 415.912 227.363 414.043C226.782 411.77 226.023 408.875 225.241 405.98ZM278.269 335.805C269.056 338.824 252.679 345.616 246.292 348.952C241.887 350.971 236.735 353.452 232.161 355.824C231.568 356.07 230.764 356.468 229.678 357.037C228.955 357.293 226.629 358.393 224.101 359.692C221.265 361.108 218.826 362.128 218.446 361.996C218.433 361.976 218.423 361.954 218.414 361.93C218.408 361.91 218.402 361.89 218.398 361.869C218.512 361.355 219.993 359.087 221.91 356.455C222.582 355.574 223.139 354.814 223.583 354.165C227.311 349.827 232.513 344.474 237.368 340.097C238.436 339.409 239.766 338.467 241.193 337.38C244.524 334.755 251.799 329.942 257.321 326.617C266.611 321.105 267.926 319.968 275.464 311.043C279.934 305.793 284.667 300.455 285.982 299.23L288.436 297.042L287.822 307.105C287.56 312.617 287.297 320.755 287.297 325.042L287.209 332.917L278.269 335.805ZM227.081 335.98C234.835 324.407 263.924 285.92 278.367 267.803C284.27 260.694 289.087 255.311 293.316 251.062L296.5 248.393C301.759 244.018 311.488 237.542 314.205 236.755C315.695 236.317 313.328 240.78 303.599 256.967L303.049 257.889C292.707 275.207 290.67 278.618 289.665 282.309C289.418 283.214 289.234 284.135 289.004 285.283L288.962 285.493C288.348 289.08 287.034 291.005 281.775 296.867C278.269 300.805 273.185 306.842 270.468 310.167L270.374 310.286C268.036 313.255 266.618 315.054 264.97 316.609C262.432 319.003 259.348 320.819 251.517 325.428L250.834 325.83C240.622 331.864 233.163 337.403 232.123 339.484C230.77 340.752 229.3 342.182 227.607 343.855C225.488 345.971 223.811 347.631 222.498 348.898C222.138 349.137 221.644 349.608 220.983 350.335C219.363 351.834 218.585 352.397 218.325 352.279C218.364 352.103 218.421 351.89 218.492 351.643C219.631 348.055 222.524 342.805 227.081 335.98ZM298.403 241.743L298.379 241.756L298.372 241.753L298.403 241.743ZM234.532 394.78C234.651 392.338 234.567 389.582 234.35 386.991C234.623 382.847 234.73 377.641 234.619 372.03L234.444 362.667L251.01 355.055C255.976 352.815 261.201 350.419 265.441 348.475L265.444 348.473L265.469 348.462C268.998 346.844 271.84 345.541 273.273 344.905C276.428 343.417 279.058 342.28 279.058 342.367C279.145 342.455 275.289 347.093 270.556 352.605C259.336 365.468 245.838 383.23 239.615 393.205C236.46 398.28 234.707 400.292 234.707 399.155C234.707 398.607 234.615 398.181 234.419 397.871C234.442 397.053 234.482 396.033 234.532 394.78Z"
        fill="white" />
    <path
        d="M216.318 73.273C215.787 73.9911 215.14 74.9118 214.46 75.93C212.97 78.205 209.639 82.1425 207.185 84.68L202.715 89.3175L202.763 89.3139L201.003 91.0421C200.839 91.1676 200.67 91.2967 200.497 91.429L200.19 91.6639C199.831 91.9382 199.455 92.225 199.066 92.5217L198.972 92.5936C197.766 93.4069 196.095 94.6455 193.775 96.405C191.881 97.7889 190.209 99.1208 188.86 100.3L185.799 102.617L185.682 103.545C185.445 103.882 185.305 104.16 185.273 104.367C185.01 105.417 184.396 109.617 183.87 113.73C183.257 117.842 181.854 125.367 180.715 130.53C179.575 135.692 178.611 140.33 178.611 140.855C178.611 140.932 178.621 141.002 178.639 141.065C178.636 141.073 178.634 141.082 178.631 141.09L178.626 141.106L178.624 141.114L178.622 141.122C178.619 141.136 178.616 141.15 178.614 141.163C178.612 141.177 178.611 141.192 178.611 141.205C178.611 141.216 178.617 141.224 178.628 141.228C178.636 141.23 178.646 141.231 178.658 141.231C178.658 141.231 178.667 141.231 178.673 141.23C178.678 141.229 178.684 141.229 178.691 141.228C178.698 141.226 178.705 141.225 178.713 141.223C178.775 141.315 178.864 141.384 178.975 141.43C179.027 141.52 179.101 141.545 179.196 141.487C179.424 141.518 179.706 141.483 180.014 141.38C182.731 140.33 200.962 127.905 203.066 125.63C203.508 125.162 203.959 124.447 204.435 123.443C204.557 123.257 204.656 123.082 204.731 122.917C204.853 122.652 205.021 122.194 205.222 121.587C206.156 119.163 207.211 115.695 208.5 110.93C210.306 104.28 211.285 100.638 211.605 98.6436C211.661 98.4366 211.718 98.2265 211.775 98.0134L211.83 97.805C212.448 95.5114 213.046 93.2151 213.609 90.9893C214.116 89.7341 214.659 87.789 215.249 85.1175C217.44 75.405 218.141 71.73 217.615 71.73C217.584 71.73 217.515 71.7874 217.413 71.8949C217.167 72.0241 216.777 72.5324 216.318 73.273Z"
        fill="white" />
    <path
        d="M225.504 225.292C221.121 235.355 212.795 256.792 212.795 257.93C212.795 258.28 213.671 257.143 214.723 255.48C226.293 236.405 241.105 217.417 264.069 192.042C279.759 174.717 292.818 158.005 306.492 137.88C311.869 129.894 314.926 125.238 316.507 122.439C317.442 120.946 317.974 119.994 317.974 119.767C317.974 119.752 317.971 119.734 317.965 119.712C317.961 119.7 317.957 119.688 317.953 119.675C317.947 119.66 317.941 119.644 317.933 119.627C317.924 119.606 317.914 119.584 317.902 119.56C317.892 119.538 317.88 119.516 317.867 119.492C318.031 118.849 317.947 118.471 317.711 118.192C317.097 117.405 311.05 110.492 304.301 102.88C272.484 66.5675 249.081 38.13 239.352 23.8675C235.846 18.705 232.954 14.855 232.954 15.205C232.954 15.555 236.022 21.5925 239.791 28.68C243.472 35.7675 247.767 44.3425 249.344 47.8425C253.902 58.08 263.193 83.455 267.663 97.805L271.541 110.408C271.527 110.619 271.52 110.851 271.52 111.105C271.52 111.454 271.378 112.182 271.118 113.222L267.137 125.367C257.846 153.805 251.711 169.117 237.512 199.042C233.48 207.705 228.046 219.517 225.504 225.292Z"
        fill="white" />
    <path
        d="M178.801 33.5531C178.801 37.5201 175.579 40.736 171.605 40.736C167.632 40.736 164.41 37.5201 164.41 33.5531C164.41 29.5861 167.632 26.3702 171.605 26.3702C175.579 26.3702 178.801 29.5861 178.801 33.5531Z"
        fill="white" />
    <defs>
        <linearGradient id="paint0_linear_9_15" x1="-50" y1="77" x2="465" y2="96.5" gradientUnits="userSpaceOnUse">
            <stop stop-color="#27B3B4" />
            <stop offset="0.114583" stop-color="#1B7581" />
            <stop offset="0.244792" stop-color="#1A6A79" />
            <stop offset="0.515625" stop-color="#103B51" />
            <stop offset="0.651042" stop-color="#144D60" />
            <stop offset="0.828125" stop-color="#175768" />
            <stop offset="0.885417" stop-color="#195F6F" />
        </linearGradient>
    </defs>
</svg>